<svg width="95" height="20" viewBox="0 0 95 20" fill="none" xmlns="http://www.w3.org/2000/svg">
<path d="M11.304 7.432C10.224 6.208 8.904 5.584 7.32 5.584C5.472 5.584 3.936 6.232 2.688 7.552C1.464 8.872 0.84 10.504 0.84 12.448C0.84 14.416 1.464 16.048 2.688 17.368C3.912 18.664 5.472 19.312 7.32 19.312C8.976 19.312 10.32 18.664 11.376 17.392V19H14.688V0.759999H11.304V7.432ZM11.472 12.448C11.472 13.528 11.136 14.416 10.464 15.16C9.792 15.88 8.928 16.24 7.848 16.24C6.768 16.24 5.904 15.88 5.208 15.16C4.536 14.416 4.2 13.528 4.2 12.448C4.2 11.392 4.536 10.504 5.208 9.784C5.904 9.04 6.768 8.68 7.848 8.68C8.928 8.68 9.792 9.04 10.464 9.784C11.136 10.504 11.472 11.392 11.472 12.448ZM27.5228 7.432C26.4428 6.208 25.1228 5.584 23.5388 5.584C21.6908 5.584 20.1548 6.232 18.9068 7.552C17.6828 8.872 17.0588 10.504 17.0588 12.448C17.0588 14.416 17.6828 16.048 18.9068 17.368C20.1308 18.664 21.6908 19.312 23.5388 19.312C25.1948 19.312 26.5388 18.664 27.5948 17.392V19H30.9068V0.759999H27.5228V7.432ZM27.6908 12.448C27.6908 13.528 27.3548 14.416 26.6828 15.16C26.0108 15.88 25.1468 16.24 24.0668 16.24C22.9868 16.24 22.1228 15.88 21.4268 15.16C20.7548 14.416 20.4188 13.528 20.4188 12.448C20.4188 11.392 20.7548 10.504 21.4268 9.784C22.1228 9.04 22.9868 8.68 24.0668 8.68C25.1468 8.68 26.0108 9.04 26.6828 9.784C27.3548 10.504 27.6908 11.392 27.6908 12.448ZM41.3415 5.584C39.7575 5.584 38.4375 6.208 37.3575 7.432V0.759999H33.9735V19H37.2615V17.368C38.3415 18.664 39.6855 19.312 41.3415 19.312C43.1895 19.312 44.7495 18.664 45.9975 17.368C47.2455 16.048 47.8695 14.416 47.8695 12.472C47.8695 10.528 47.2455 8.896 45.9975 7.576C44.7495 6.256 43.1895 5.584 41.3415 5.584ZM37.2135 12.448C37.2135 11.416 37.5495 10.528 38.2215 9.808C38.8935 9.064 39.7575 8.704 40.8135 8.704C41.8695 8.704 42.7335 9.064 43.4055 9.784C44.0775 10.504 44.4135 11.392 44.4135 12.448C44.4135 13.504 44.0775 14.392 43.4055 15.136C42.7335 15.856 41.8695 16.216 40.8135 16.216C39.7575 16.216 38.8935 15.856 38.2215 15.136C37.5495 14.392 37.2135 13.504 37.2135 12.448ZM49.5431 12.448C49.5431 14.392 50.1911 16.024 51.5111 17.344C52.8311 18.664 54.5111 19.336 56.5511 19.336C58.5911 19.336 60.2711 18.664 61.5911 17.344C62.9111 16.024 63.5591 14.392 63.5591 12.448C63.5591 10.528 62.9111 8.896 61.5911 7.576C60.2711 6.232 58.5911 5.56 56.5511 5.56C54.5111 5.56 52.8311 6.232 51.5111 7.576C50.1911 8.896 49.5431 10.528 49.5431 12.448ZM53.9591 15.112C53.2631 14.368 52.9271 13.48 52.9271 12.448C52.9271 11.416 53.2631 10.528 53.9591 9.808C54.6551 9.088 55.5191 8.728 56.5511 8.728C57.5831 8.728 58.4231 9.088 59.1191 9.808C59.8151 10.528 60.1751 11.416 60.1751 12.448C60.1751 13.48 59.8151 14.368 59.1191 15.112C58.4231 15.832 57.5831 16.192 56.5511 16.192C55.5191 16.192 54.6551 15.832 53.9591 15.112ZM65.2463 12.448C65.2463 14.392 65.8943 16.024 67.2143 17.344C68.5343 18.664 70.2143 19.336 72.2543 19.336C74.2943 19.336 75.9743 18.664 77.2943 17.344C78.6143 16.024 79.2623 14.392 79.2623 12.448C79.2623 10.528 78.6143 8.896 77.2943 7.576C75.9743 6.232 74.2943 5.56 72.2543 5.56C70.2143 5.56 68.5343 6.232 67.2143 7.576C65.8943 8.896 65.2463 10.528 65.2463 12.448ZM69.6623 15.112C68.9663 14.368 68.6303 13.48 68.6303 12.448C68.6303 11.416 68.9663 10.528 69.6623 9.808C70.3583 9.088 71.2223 8.728 72.2543 8.728C73.2863 8.728 74.1263 9.088 74.8223 9.808C75.5183 10.528 75.8783 11.416 75.8783 12.448C75.8783 13.48 75.5183 14.368 74.8223 15.112C74.1263 15.832 73.2863 16.192 72.2543 16.192C71.2223 16.192 70.3583 15.832 69.6623 15.112ZM94.3894 19L88.2214 11.272L94.0534 5.92H89.7814L85.0294 10.384V0.759999H81.6454V19H85.0294V14.2L85.9174 13.408L90.2374 19H94.3894Z" fill="#38BAAA"/>
</svg>
